<?xml version="1.0" encoding="utf-8"?>
<svg version="1.1" xmlns:xlink="http://www.w3.org/1999/xlink" width="28px" height="28px" xmlns="http://www.w3.org/2000/svg">
  <g transform="matrix(1 0 0 1 -314 -18 )">
    <path d="M 10.129807692307692 23.664772727272727  C 10.556089743589745 24.168560606060602  10.76923076923077 24.765151515151512  10.76923076923077 25.454545454545453  C 10.76923076923077 26.143939393939398  10.556089743589745 26.740530303030305  10.129807692307692 27.244318181818183  C 9.703525641025642 27.74810606060606  9.19871794871795 28  8.615384615384617 28  C 8.032051282051283 28  7.527243589743591 27.74810606060606  7.100961538461538 27.244318181818183  C 6.674679487179487 26.740530303030305  6.461538461538462 26.143939393939398  6.461538461538462 25.454545454545453  C 6.461538461538462 24.765151515151512  6.674679487179487 24.168560606060602  7.100961538461538 23.664772727272727  C 7.527243589743591 23.16098484848485  8.032051282051283 22.909090909090907  8.615384615384617 22.909090909090907  C 9.19871794871795 22.909090909090907  9.703525641025642 23.16098484848485  10.129807692307692 23.664772727272727  Z M 25.206730769230766 23.664772727272727  C 25.633012820512818 24.168560606060602  25.846153846153847 24.765151515151512  25.846153846153847 25.454545454545453  C 25.846153846153847 26.143939393939398  25.633012820512818 26.740530303030305  25.206730769230766 27.244318181818183  C 24.78044871794872 27.74810606060606  24.275641025641026 28  23.692307692307693 28  C 23.10897435897436 28  22.604166666666668 27.74810606060606  22.177884615384617 27.244318181818183  C 21.751602564102566 26.740530303030305  21.53846153846154 26.143939393939398  21.53846153846154 25.454545454545453  C 21.53846153846154 24.765151515151512  21.751602564102566 24.168560606060602  22.177884615384617 23.664772727272727  C 22.604166666666668 23.16098484848485  23.10897435897436 22.909090909090907  23.692307692307693 22.909090909090907  C 24.275641025641026 22.909090909090907  24.78044871794872 23.16098484848485  25.206730769230766 23.664772727272727  Z M 27.68028846153846 2.9232954545454537  C 27.89342948717949 3.175189393939391  28 3.4734848484848446  28 3.818181818181818  L 28 14  C 28 14.318181818181818  27.907451923076923 14.599905303030305  27.722355769230766 14.845170454545457  C 27.537259615384617 15.090435606060602  27.310096153846153 15.232954545454543  27.040865384615383 15.272727272727272  L 9.473557692307692 17.698863636363637  C 9.619391025641026 18.494318181818183  9.692307692307692 18.958333333333332  9.692307692307692 19.090909090909093  C 9.692307692307692 19.303030303030297  9.557692307692308 19.727272727272727  9.288461538461538 20  L 24.769230769230766 20  C 25.060897435897438 20.363636363636363  25.313301282051285 20.489583333333332  25.526442307692307 20.741477272727273  C 25.739583333333332 20.99337121212121  25.846153846153847 21.291666666666668  25.846153846153847 21.636363636363637  C 25.846153846153847 21.981060606060602  25.739583333333332 22.27935606060606  25.526442307692307 22.53125  C 25.313301282051285 22.78314393939394  25.060897435897438 22.909090909090907  24.769230769230766 23  L 7.538461538461538 23  C 7.246794871794872 22.909090909090907  6.9943910256410255 22.78314393939394  6.78125 22.53125  C 6.5681089743589745 22.27935606060606  6.461538461538462 21.981060606060602  6.461538461538462 21.636363636363637  C 6.461538461538462 21.490530303030305  6.5064102564102555 21.281723484848488  6.596153846153846 21.009943181818183  C 6.685897435897436 20.73816287878788  6.7756410256410255 20.499526515151512  6.865384615384615 20.294034090909093  C 6.955128205128206 20.088541666666664  7.075721153846154 19.823390151515152  7.227163461538462 19.498579545454543  C 7.37860576923077 19.173768939393934  7.465544871794872 18.978219696969695  7.48798076923077 18.911931818181817  L 4.509615384615385 2.5454545454545463  L 1.076923076923077 2.5454545454545463  C 0.7852564102564104 2.5454545454545463  0.5328525641025641 2.419507575757573  0.31971153846153844 2.167613636363636  C 0.10657051282051282 1.9157196969696955  0 1.6174242424242418  0 1.2727272727272716  C 0 0.9280303030303014  0.10657051282051282 0.6297348484848446  0.31971153846153844 0.3778409090909105  C 0.5328525641025641 0.12594696969696706  0.7852564102564104 0  1.076923076923077 0  L 5.384615384615385 0  C 5.564102564102565 0  5.723958333333334 0.04308712121211933  5.864182692307692 0.1292613636363642  C 6.004407051282052 0.21543560606060597  6.113782051282052 0.3181818181818179  6.192307692307692 0.4375  C 6.270833333333334 0.5568181818181821  6.34375 0.7192234848484804  6.411057692307692 0.9247159090909105  C 6.478365384615386 1.1302083333333313  6.523237179487181 1.302556818181818  6.545673076923077 1.4417613636363642  C 6.568108974358975 1.5809659090909105  6.598958333333334 1.7765151515151492  6.638221153846154 2.0284090909090895  C 6.677483974358975 2.2803030303030267  6.7027243589743595 2.4526515151515134  6.713942307692308 3  L 26.923076923076923 3  C 27.21474358974359 2.5454545454545463  27.467147435897438 2.6714015151515134  27.68028846153846 2.9232954545454537  Z " fill-rule="nonzero" fill="#ffffff" stroke="none" transform="matrix(1 0 0 1 314 18 )" />
  </g>
</svg>