<?xml version="1.0" encoding="utf-8"?>
<svg version="1.1" xmlns:xlink="http://www.w3.org/1999/xlink" width="30px" height="28px" xmlns="http://www.w3.org/2000/svg">
  <g transform="matrix(1 0 0 1 -57 -605 )">
    <path d="M 16.57366071428571 3.577004968062455  C 15.089285714285714 2.8881003075467215  13.493303571428571 2.543647977288858  11.785714285714285 2.543647977288858  C 10.078125 2.543647977288858  8.482142857142858 2.8881003075467215  6.997767857142858 3.577004968062455  C 5.513392857142858 4.265909628578186  4.333147321428572 5.199905370238936  3.45703125 6.378992193044711  C 2.580915178571429 7.558079015850485  2.142857142857143 8.823278921220723  2.142857142857143 10.174591909155428  C 2.142857142857143 11.260941566122545  2.438616071428572 12.30754672344452  3.030133928571429 13.314407381121363  C 3.621651785714286 14.321268038798202  4.453125 15.195647030991246  5.524553571428572 15.9375443577005  L 7.1484375 17.050390347764374  L 6.5625 18.719659332860186  C 6.9419642857142865 18.454696001892593  7.28794642857143 18.196356754199194  7.600446428571429 17.944641589779987  L 8.337053571428571 17.328601845280343  L 9.224330357142856 17.527324343506034  C 10.094866071428571 17.71279867518335  10.948660714285715 17.805535841022003  11.785714285714285 17.805535841022003  C 13.493303571428571 17.805535841022003  15.089285714285714 17.461083510764137  16.57366071428571 16.772178850248405  C 18.058035714285715 16.08327418973267  19.238281250000004 15.149278448071918  20.11439732142857 13.970191625266144  C 20.990513392857146 12.791104802460373  21.42857142857143 11.525904897090134  21.42857142857143 10.174591909155428  C 21.42857142857143 8.823278921220723  20.990513392857146 7.558079015850485  20.11439732142857 6.378992193044711  C 19.238281250000004 5.199905370238936  18.058035714285715 4.265909628578186  16.57366071428571 3.577004968062455  Z M 5.867745535714286 1.3612491128459911  C 7.681361607142858 0.453749704281996  9.65401785714286 0  11.785714285714285 0  C 13.917410714285715 0  15.890066964285715 0.453749704281996  17.70368303571429 1.3612491128459911  C 19.517299107142858 2.26874852140998  20.94866071428572 3.504140052046366  21.997767857142858 5.067423704755146  C 23.046875000000004 6.630707357463919  23.57142857142857 8.333096758930683  23.57142857142857 10.174591909155428  C 23.57142857142857 12.016087059380173  23.046875000000004 13.718476460846935  21.997767857142858 15.281760113555714  C 20.94866071428572 16.84504376626449  19.517299107142858 18.080435296900873  17.70368303571429 18.98793470546487  C 15.890066964285715 19.89543411402886  13.917410714285715 20.34918381831086  11.785714285714285 20.34918381831086  C 10.82589285714286 20.34918381831086  9.84375 20.24319848592382  8.839285714285715 20.031227821149756  C 7.455357142857144 21.197066477407144  5.904017857142858 22.04494913650343  4.185267857142858 22.574875798438608  C 3.783482142857143 22.694109297374027  3.303571428571429 22.80009462976106  2.745535714285714 22.892831795599715  L 2.6953125 22.892831795599715  C 2.5725446428571432 22.892831795599715  2.4581473214285716 22.839839129406197  2.352120535714286 22.73385379701916  C 2.24609375 22.62786846463213  2.1819196428571432 22.488762715874145  2.159598214285714 22.31653655074521  C 2.1484375000000004 22.27679205110007  2.142857142857143 22.233735509817837  2.142857142857143 22.187366926898513  C 2.142857142857143 22.140998343979184  2.145647321428572 22.097941802696948  2.151227678571429 22.05819730305181  C 2.1568080357142856 22.01845280340667  2.16796875 21.978708303761536  2.184709821428571 21.938963804116394  L 2.2265625 21.83960255500355  C 2.2265625 21.83960255500355  2.24609375 21.80317009699551  2.28515625 21.730305180979418  C 2.3242187500000004 21.657440264963327  2.346540178571429 21.624319848592386  2.352120535714286 21.630943931866575  C 2.3577008928571432 21.63756801514076  2.3828125000000004 21.604447598769816  2.427455357142857 21.531582682753726  C 2.472098214285715 21.458717766737635  2.494419642857143 21.428909392003785  2.494419642857143 21.442157558552164  C 2.5502232142857144 21.362668559261888  2.678571428571429 21.19706647740714  2.879464285714286 20.945351312987935  C 3.080357142857143 20.69363614856872  3.225446428571429 20.498225691980128  3.314732142857143 20.359119943222144  C 3.404017857142857 20.22001419446416  3.5295758928571432 20.027915779512654  3.69140625 19.782824698367637  C 3.8532366071428577 19.537733617222614  3.9927455357142856 19.28270641116631  4.109933035714286 19.017743080198724  C 4.227120535714286 18.75277974923113  4.341517857142858 18.461320085166786  4.453125 18.143364088005676  C 3.069196428571428 17.189496096522358  1.9810267857142858 16.017033356990773  1.1886160714285714 14.62597586941093  C 0.3962053571428571 13.234918381831086  0 11.751123728412583  0 10.174591909155428  C 0 8.333096758930683  0.5245535714285714 6.630707357463919  1.5736607142857144 5.067423704755146  C 2.622767857142857 3.504140052046366  4.054129464285714 2.26874852140998  5.867745535714286 1.3612491128459911  Z M 28.81138392857143 19.723207948899926  C 28.01897321428572 21.107641353205587  26.930803571428577 22.27679205110007  25.546875 23.230660042583395  C 25.658482142857142 23.5486160397445  25.77287946428571 23.84007570380885  25.89006696428571 24.105039034776436  C 26.00725446428572 24.370002365744025  26.146763392857146 24.625029571800333  26.30859375 24.870120652945353  C 26.470424107142858 25.11521173409037  26.595982142857146 25.30731014904187  26.685267857142858 25.446415897799856  C 26.774553571428577 25.58552164655784  26.91964285714286 25.78093210314644  27.12053571428571 26.03264726756565  C 27.321428571428573 26.28436243198486  27.44977678571429 26.449964513839603  27.505580357142858 26.52945351312988  C 27.516741071428577 26.542701679678263  27.539062500000004 26.572510054412113  27.572544642857142 26.61887863733144  C 27.606026785714292 26.665247220250766  27.631138392857146 26.698367636621718  27.64787946428571 26.718239886444287  C 27.664620535714292 26.738112136266857  27.68694196428572 26.771232552637805  27.71484375 26.817601135557133  C 27.742745535714285 26.863969718476458  27.76227678571429 26.900402176484505  27.7734375 26.926898509581264  L 27.81529017857143 27.02625975869411  C 27.81529017857143 27.02625975869411  27.826450892857146 27.066004258339248  27.84877232142857 27.145493257629525  C 27.87109375 27.2249822569198  27.87388392857143 27.268038798202035  27.857142857142858 27.274662881476225  C 27.84040178571429 27.28128696475041  27.83482142857143 27.324343506032648  27.84040178571429 27.403832505322924  C 27.806919642857142 27.589306837000237  27.734375000000004 27.735036669032414  27.622767857142858 27.841022001419446  C 27.51116071428572 27.947007333806482  27.388392857142858 27.99337591672581  27.25446428571429 27.98012775017743  C 26.696428571428577 27.887390584338775  26.21651785714286 27.78140525195174  25.814732142857142 27.662171753016324  C 24.095982142857146 27.132245091081145  22.544642857142858 26.28436243198486  21.16071428571429 25.118523775727468  C 20.15625 25.33049444050154  19.174107142857146 25.43647977288857  18.21428571428571 25.43647977288857  C 15.189732142857142 25.43647977288857  12.555803571428571 24.56210078069553  10.3125 22.813342796309442  C 10.959821428571429 22.86633546250296  11.450892857142856 22.892831795599715  11.785714285714285 22.892831795599715  C 13.582589285714286 22.892831795599715  15.306919642857142 22.594748048261177  16.958705357142858 21.9985805535841  C 18.610491071428573 21.402413058907026  20.083705357142858 20.54790631653655  21.37834821428571 19.435060326472676  C 22.7734375 18.216229004021763  23.844866071428577 16.81192334989354  24.59263392857143 15.222143364088007  C 25.34040178571428 13.63236337828247  25.71428571428571 11.949846226638275  25.71428571428571 10.174591909155428  C 25.71428571428571 9.15448308493021  25.585937499999996 8.14762242725337  25.32924107142857 7.15400993612491  C 26.76897321428571 8.094629761059851  27.90736607142857 9.273716583865625  28.744419642857142 10.691270404542228  C 29.58147321428571 12.108824225218829  30 13.63236337828247  30 15.261887863733143  C 30 16.85166784953868  29.603794642857146 18.338774544594273  28.81138392857143 19.723207948899926  Z " fill-rule="nonzero" fill="#000000" stroke="none" transform="matrix(1 0 0 1 57 605 )" />
  </g>
</svg>