<?xml version="1.0" encoding="utf-8"?>
<svg version="1.1" xmlns:xlink="http://www.w3.org/1999/xlink" width="28px" height="24px" xmlns="http://www.w3.org/2000/svg">
  <g transform="matrix(1 0 0 1 161 -607 )">
    <path d="M 14.6875 23.71875  C 14.500000000000002 23.90625  14.270833333333334 24  14 24  C 13.729166666666668 24  13.500000000000002 23.90625  13.3125 23.71875  L 3.5625 14.312500000000002  C 3.4583333333333335 14.229166666666666  3.315104166666667 14.093749999999998  3.1328125 13.906249999999998  C 2.9505208333333335 13.718749999999998  2.6614583333333335 13.377604166666668  2.265625 12.882812500000002  C 1.8697916666666665 12.38802083333333  1.515625 11.880208333333332  1.203125 11.359375  C 0.890625 10.838541666666668  0.6119791666666667 10.208333333333332  0.3671875 9.46875  C 0.12239583333333334 8.729166666666664  0 8.010416666666664  0 7.3125  C 0 5.020833333333332  0.6614583333333333 3.229166666666665  1.984375 1.9374999999999991  C 3.307291666666667 0.645833333333333  5.135416666666666 0  7.468750000000001 0  C 8.114583333333334 0  8.7734375 0.11197916666666519  9.4453125 0.3359375000000009  C 10.1171875 0.5598958333333313  10.7421875 0.8619791666666652  11.3203125 1.2421875  C 11.898437500000002 1.6223958333333321  12.395833333333336 1.9791666666666643  12.8125 2.312499999999999  C 13.229166666666668 2.6458333333333313  13.625 3  14 3.375  C 14.374999999999998 3  14.770833333333336 2.6458333333333313  15.1875 2.312499999999999  C 15.604166666666668 1.9791666666666643  16.1015625 1.6223958333333321  16.6796875 1.2421875  C 17.2578125 0.8619791666666652  17.8828125 0.5598958333333313  18.5546875 0.3359375000000009  C 19.2265625 0.11197916666666519  19.885416666666668 0  20.53125 0  C 22.864583333333336 0  24.692708333333336 0.645833333333333  26.015625 1.9374999999999991  C 27.338541666666668 3.229166666666665  28 5.020833333333332  28 7.3125  C 28 9.614583333333332  26.807291666666668 11.958333333333332  24.421875 14.34375  L 14.6875 23.71875  Z " fill-rule="nonzero" fill="#ff6700" stroke="none" fill-opacity="0.9921568627450981" transform="matrix(1 0 0 1 -161 607 )" />
  </g>
</svg>