<?xml version="1.0" encoding="utf-8"?>
<svg version="1.1" xmlns:xlink="http://www.w3.org/1999/xlink" width="27px" height="24px" xmlns="http://www.w3.org/2000/svg">
  <g transform="matrix(1 0 0 1 -10 -607 )">
    <path d="M 22.238839285714285 12.874999999999998  C 24.127232142857146 10.916666666666664  25.071428571428573 9.0625  25.071428571428573 7.3125  C 25.071428571428573 6.46875  24.96344866071429 5.723958333333332  24.747488839285715 5.078124999999999  C 24.531529017857142 4.432291666666663  24.25530133928572 3.919270833333332  23.918805803571427 3.5390625  C 23.582310267857146 3.158854166666665  23.172991071428577 2.848958333333333  22.690848214285715 2.609375000000001  C 22.208705357142858 2.3697916666666634  21.736607142857142 2.208333333333332  21.274553571428573 2.124999999999999  C 20.8125 2.0416666666666634  20.320312500000004 2.000000000000001  19.797991071428573 2.000000000000001  C 19.275669642857146 2.000000000000001  18.713169642857142 2.1328125  18.110491071428573 2.398437500000001  C 17.5078125 2.664062499999999  16.952845982142858 2.9973958333333313  16.445591517857142 3.3984375  C 15.938337053571432 3.7994791666666634  15.50390625 4.174479166666663  15.142299107142858 4.5234375  C 14.780691964285717 4.872395833333331  14.47935267857143 5.192708333333333  14.23828125 5.484375  C 14.05747767857143 5.713541666666665  13.81138392857143 5.828124999999999  13.5 5.828124999999999  C 13.188616071428571 5.828124999999999  12.942522321428571 5.713541666666665  12.76171875 5.484375  C 12.520647321428571 5.192708333333333  12.219308035714286 4.872395833333331  11.857700892857142 4.5234375  C 11.49609375 4.174479166666663  11.061662946428573 3.7994791666666634  10.554408482142858 3.3984375  C 10.047154017857144 2.9973958333333313  9.4921875 2.664062499999999  8.889508928571429 2.398437500000001  C 8.286830357142858 2.1328125  7.7243303571428585 2.000000000000001  7.202008928571429 2.000000000000001  C 6.6796875 2.000000000000001  6.187500000000001 2.0416666666666634  5.725446428571429 2.124999999999999  C 5.263392857142858 2.208333333333332  4.791294642857143 2.3697916666666634  4.309151785714286 2.609375000000001  C 3.8270089285714284 2.848958333333333  3.417689732142857 3.158854166666665  3.0811941964285716 3.5390625  C 2.744698660714286 3.919270833333332  2.468470982142857 4.432291666666663  2.2525111607142856 5.078124999999999  C 2.036551339285715 5.723958333333332  1.9285714285714284 6.46875  1.9285714285714284 7.3125  C 1.9285714285714284 9.0625  2.867745535714286 10.911458333333332  4.74609375 12.859375000000002  L 13.5 21.609375  L 22.238839285714285 12.874999999999998  Z M 25.086495535714285 1.9374999999999991  C 26.36216517857143 3.229166666666665  27 5.020833333333332  27 7.3125  C 27 9.614583333333332  25.849888392857142 11.958333333333332  23.549665178571427 14.34375  L 14.162946428571427 23.71875  C 13.982142857142858 23.90625  13.761160714285715 24  13.5 24  C 13.238839285714286 24  13.017857142857144 23.90625  12.837053571428571 23.71875  L 3.4352678571428568 14.312500000000002  C 3.334821428571429 14.229166666666666  3.196707589285715 14.093749999999998  3.0209263392857144 13.906249999999998  C 2.8451450892857144 13.718749999999998  2.5664062500000004 13.377604166666668  2.1847098214285716 12.882812500000002  C 1.8030133928571428 12.38802083333333  1.4614955357142858 11.880208333333332  1.16015625 11.359375  C 0.8588169642857142 10.838541666666668  0.5901227678571429 10.208333333333332  0.3540736607142857 9.46875  C 0.11802455357142858 8.729166666666664  0 8.010416666666664  0 7.3125  C 0 5.020833333333332  0.6378348214285713 3.229166666666665  1.9135044642857142 1.9374999999999991  C 3.1891741071428577 0.645833333333333  4.952008928571428 0  7.202008928571429 0  C 7.824776785714286 0  8.460100446428571 0.11197916666666519  9.107979910714286 0.3359375000000009  C 9.755859375 0.5598958333333313  10.358537946428571 0.8619791666666652  10.916015625 1.2421875  C 11.47349330357143 1.6223958333333321  11.953125000000002 1.9791666666666643  12.354910714285714 2.312499999999999  C 12.75669642857143 2.6458333333333313  13.138392857142858 3  13.5 3.375  C 13.861607142857142 3  14.243303571428573 2.6458333333333313  14.645089285714286 2.312499999999999  C 15.046875000000002 1.9791666666666643  15.526506696428573 1.6223958333333321  16.083984375 1.2421875  C 16.641462053571427 0.8619791666666652  17.244140625 0.5598958333333313  17.892020089285715 0.3359375000000009  C 18.539899553571427 0.11197916666666519  19.175223214285715 0  19.797991071428573 0  C 22.047991071428573 0  23.810825892857146 0.645833333333333  25.086495535714285 1.9374999999999991  Z " fill-rule="nonzero" fill="#000000" stroke="none" transform="matrix(1 0 0 1 10 607 )" />
  </g>
</svg>