<?xml version="1.0" encoding="utf-8"?>
<svg version="1.1" xmlns:xlink="http://www.w3.org/1999/xlink" width="26px" height="26px" xmlns="http://www.w3.org/2000/svg">
  <g transform="matrix(1 0 0 1 -445 -606 )">
    <path d="M 24.60791968767429 0.1594202898550714  C 24.946272541364568 -0.043478260869568075  25.274958170663695 -0.033816425120777094  25.593976575571666 0.1884057971014501  C 25.912994980479645 0.4202898550724625  26.043502509760184 0.7294685990338143  25.985499163413273 1.1159420289855084  L 22.27328499721138 23.3768115942029  C 22.224948875255624 23.657004830917874  22.07027328499721 23.874396135265698  21.809258226436143 24.02898550724638  C 21.67391708496003 24.106280193236714  21.524075106897193 24.144927536231883  21.35973229224763 24.144927536231883  C 21.25339282394497 24.144927536231883  21.137386131251162 24.1207729468599  21.011712214166202 24.07246376811594  L 13.369771332961518 20.956521739130434  L 9.048522030117121 25.695652173913043  C 8.874511991076407 25.89855072463768  8.647332217884365 26  8.366982710540992 26  C 8.231641569064882 26  8.120468488566647 25.980676328502415  8.033463469046291 25.942028985507246  C 7.849786205614427 25.874396135265698  7.704777839747166 25.76086956521739  7.598438371444506 25.60144927536232  C 7.492098903141849 25.442028985507246  7.438929168990519 25.265700483091788  7.438929168990519 25.07246376811594  L 7.438929168990519 18.52173913043478  L 0.5945343000557725 15.72463768115942  C 0.2368469975831939 15.589371980676326  0.04350250976017848 15.32367149758454  0.014500836586726159 14.927536231884059  C -0.014500836586726159 14.550724637681157  0.14017475367168616 14.265700483091786  0.4785276073619632 14.072463768115943  L 24.60791968767429 0.1594202898550714  Z M 13.500278862242052 19  L 20.634690462911323 21.91304347826087  L 23.839375348577803 2.7391304347826098  L 3.045175683212493 14.724637681159418  L 7.917456776352482 16.710144927536234  L 20.431678750697156 7.44927536231884  L 13.500278862242052 19  Z " fill-rule="nonzero" fill="#000000" stroke="none" transform="matrix(1 0 0 1 445 606 )" />
  </g>
</svg>