<?xml version="1.0" encoding="utf-8"?>
<svg version="1.1" xmlns:xlink="http://www.w3.org/1999/xlink" width="27px" height="21px" xmlns="http://www.w3.org/2000/svg">
  <g transform="matrix(1 0 0 1 -97 -263 )">
    <path d="M 1.9285714285714284 10.5  C 3.6060267857142856 13.1875  5.750558035714286 15.140624999999998  8.362165178571429 16.359375  L 9.537388392857142 14.156249999999998  C 8.663504464285714 13.499999999999998  7.980468750000001 12.671875  7.48828125 11.671875  C 6.996093750000001 10.671875  6.75 9.614583333333332  6.75 8.5  C 6.75 7.239583333333333  7.056361607142858 6.067708333333331  7.669084821428571 4.984375  C 5.368861607142858 6.203125  3.4553571428571432 8.041666666666666  1.9285714285714284 10.5  Z M 14.012276785714286 5.031250000000001  C 14.152901785714286 4.885416666666663  14.223214285714286 4.708333333333333  14.223214285714286 4.5  C 14.223214285714286 4.291666666666665  14.152901785714286 4.114583333333333  14.012276785714286 3.96875  C 13.871651785714288 3.8229166666666647  13.700892857142856 3.750000000000001  13.5 3.750000000000001  C 12.244419642857144 3.750000000000001  11.167131696428573 4.216145833333333  10.268136160714286 5.1484375  C 9.369140625000002 6.080729166666667  8.919642857142858 7.197916666666667  8.919642857142858 8.5  C 8.919642857142858 8.708333333333332  8.98995535714286 8.885416666666666  9.130580357142858 9.03125  C 9.271205357142858 9.17708333333333  9.441964285714286 9.25  9.642857142857142 9.25  C 9.843750000000002 9.25  10.01450892857143 9.17708333333333  10.155133928571429 9.03125  C 10.295758928571429 8.885416666666666  10.366071428571429 8.708333333333332  10.366071428571429 8.5  C 10.366071428571429 7.604166666666665  10.672433035714286 6.838541666666667  11.28515625 6.203125  C 11.897879464285715 5.567708333333331  12.636160714285715 5.249999999999997  13.5 5.25  C 13.700892857142856 5.249999999999997  13.871651785714288 5.177083333333331  14.012276785714286 5.031250000000001  Z M 19.451450892857142 1.0937500000000009  C 19.61216517857143 1.1979166666666647  19.692522321428573 1.3385416666666654  19.692522321428573 1.5156250000000004  C 19.692522321428573 1.5885416666666645  19.687500000000004 1.6354166666666632  19.677455357142858 1.656250000000001  C 18.61272321428572 3.625000000000001  17.025669642857142 6.578125000000001  14.916294642857142 10.515625000000002  C 12.806919642857144 14.453125000000002  11.224888392857144 17.401041666666668  10.170200892857142 19.359375  L 9.431919642857142 20.75  C 9.331473214285715 20.916666666666668  9.190848214285714 21  9.010044642857142 21  C 8.889508928571429 21  8.216517857142858 20.635416666666668  6.991071428571429 19.90625  C 6.830357142857144 19.802083333333332  6.75 19.65625  6.75 19.46875  C 6.75 19.34375  6.970982142857143 18.890625  7.412946428571429 18.109375  C 5.976562500000001 17.432291666666668  4.65318080357143 16.53125  3.4428013392857144 15.406249999999998  C 2.232421875 14.28125  1.1852678571428574 13.005208333333332  0.3013392857142857 11.578125  C 0.10044642857142856 11.255208333333332  0 10.895833333333332  0 10.5  C 0 10.104166666666666  0.10044642857142856 9.744791666666666  0.3013392857142857 9.421875  C 1.838169642857143 6.973958333333333  3.746651785714286 5.041666666666665  6.026785714285714 3.625000000000001  C 8.306919642857144 2.2083333333333326  10.797991071428573 1.4999999999999993  13.5 1.4999999999999993  C 14.393973214285715 1.4999999999999993  15.297991071428573 1.5885416666666645  16.212053571428573 1.7656249999999996  L 17.025669642857142 0.2499999999999991  C 17.126116071428573 0.08333333333333304  17.266741071428573 0  17.447544642857142 0  C 17.49776785714286 0  17.588169642857146 0.03124999999999989  17.71875 0.09374999999999967  C 17.849330357142858 0.15624999999999944  18.005022321428573 0.23697916666666408  18.185825892857142 0.33593750000000056  C 18.366629464285715 0.43489583333333237  18.532366071428573 0.5312500000000004  18.683035714285715 0.6250000000000001  C 18.833705357142858 0.7187499999999998  18.991908482142858 0.8151041666666632  19.157645089285715 0.9140624999999997  C 19.323381696428573 1.0130208333333315  19.421316964285715 1.0729166666666652  19.451450892857142 1.0937500000000009  Z M 20.129464285714285 7.1875  C 20.20982142857143 7.656250000000001  20.25 8.09375  20.25 8.5  C 20.25 9.947916666666666  19.853236607142858 11.268229166666664  19.059709821428573 12.4609375  C 18.26618303571429 13.653645833333332  17.216517857142858 14.510416666666664  15.910714285714286 15.03125  L 20.129464285714285 7.1875  Z M 26.698660714285715 9.421875  C 26.899553571428573 9.776041666666666  27 10.135416666666666  27 10.5  C 27 10.864583333333332  26.899553571428573 11.223958333333332  26.698660714285715 11.578125  C 26.306919642857142 12.244791666666664  25.759486607142858 13  25.056361607142858 13.84375  C 23.549665178571427 15.63541666666667  21.804408482142858 17.026041666666668  19.820591517857142 18.015625  C 17.83677455357143 19.005208333333332  15.729910714285714 19.5  13.5 19.5  L 14.614955357142858 17.4375  C 16.744419642857146 17.25  18.71568080357143 16.536458333333332  20.528738839285715 15.296875  C 22.341796875 14.057291666666664  23.85602678571429 12.45833333333333  25.071428571428573 10.5  C 23.916294642857146 8.635416666666666  22.5 7.104166666666667  20.822544642857142 5.90625  L 21.771763392857142 4.156249999999999  C 22.72600446428572 4.822916666666663  23.642578125000004 5.619791666666664  24.521484375 6.546874999999999  C 25.400390625 7.473958333333331  26.126116071428573 8.432291666666666  26.698660714285715 9.421875  Z " fill-rule="nonzero" fill="#000000" stroke="none" transform="matrix(1 0 0 1 97 263 )" />
  </g>
</svg>