<?xml version="1.0" encoding="utf-8"?>
<svg version="1.1" xmlns:xlink="http://www.w3.org/1999/xlink" width="27px" height="31px" xmlns="http://www.w3.org/2000/svg">
  <g transform="matrix(1 0 0 1 -110 -199 )">
    <path d="M 22.5 8.857142857142861  C 22.5 10.552455357142861  22.037109375 12.12090773809524  21.111328125 13.5625  C 21.662109375 13.723958333333343  22.1865234375 13.943080357142861  22.6845703125 14.219866071428555  C 23.1826171875 14.496651785714278  23.7041015625 14.917596726190482  24.2490234375 15.482700892857139  C 24.7939453125 16.047805059523796  25.259765625 16.713820684523796  25.646484375 17.48074776785714  C 26.033203125 18.24767485119048  26.35546875 19.239490327380963  26.61328125 20.456194196428584  C 26.87109375 21.672898065476204  27 23.036644345238102  27 24.547433035714278  C 27 26.323474702380963  26.4140625 27.842912946428555  25.2421875 29.10574776785714  C 24.0703125 30.368582589285722  22.658203125 31  21.005859375 31  L 5.994140625 31  C 4.341796875 31  2.9296875 30.368582589285722  1.7578125000000002 29.10574776785714  C 0.5859375 27.842912946428555  0 26.323474702380963  0 24.547433035714278  C 0 23.036644345238102  0.12890625 21.672898065476204  0.38671875 20.456194196428584  C 0.64453125 19.239490327380963  0.9667968749999999 18.24767485119048  1.353515625 17.48074776785714  C 1.740234375 16.713820684523796  2.2060546875 16.047805059523796  2.7509765625 15.482700892857139  C 3.2958984375 14.917596726190482  3.8173828125 14.496651785714278  4.3154296875 14.219866071428555  C 4.8134765625 13.943080357142861  5.337890625 13.723958333333343  5.888671875 13.5625  C 4.962890625 12.12090773809524  4.5 10.552455357142861  4.5 8.857142857142861  C 4.5 7.657738095238102  5.2119140625 5.423270089285722  5.2119140625 5.423270089285722  C 5.2119140625 5.423270089285722  6.328125 3.390625  7.136718750000001 2.5948660714285836  C 7.945312499999999 1.7991071428571388  8.9033203125 1.1676897321428612  10.0107421875 0.7006138392857224  C 11.1181640625 0.2335379464285836  12.28125 0  13.5 0  C 14.718749999999998 0  15.881835937500002 0.2335379464285836  16.9892578125 0.7006138392857224  C 18.0966796875 1.1676897321428612  19.0546875 1.7991071428571388  19.86328125 2.5948660714285836  C 20.671875 3.390625  21.3134765625 4.333426339285722  21.7880859375 5.423270089285722  C 22.2626953125 6.513113839285722  22.5 7.657738095238102  22.5 8.857142857142861  Z M 18.2724609375 4.160435267857139  C 16.9541015625 2.863002232142861  15.363281249999998 2.2142857142857224  13.5 2.2142857142857224  C 11.63671875 2.2142857142857224  10.0458984375 2.863002232142861  8.7275390625 4.160435267857139  C 7.4091796875 5.457868303571416  6.75 7.0234375  6.75 8.857142857142861  C 6.75 10.690848214285722  7.4091796875 12.256417410714278  8.7275390625 13.553850446428555  C 10.0458984375 14.851283482142861  11.63671875 15.5  13.5 15.5  C 15.363281249999998 15.5  16.9541015625 14.851283482142861  18.2724609375 13.553850446428555  C 19.5908203125 12.256417410714278  20.25 10.690848214285722  20.25 8.857142857142861  C 20.25 7.0234375  19.5908203125 5.457868303571416  18.2724609375 4.160435267857139  Z M 5.994140625 28.785714285714278  L 21.005859375 28.785714285714278  C 22.037109375 28.785714285714278  22.9189453125 28.37341889880952  23.6513671875 27.548828125  C 24.3837890625 26.72423735119048  24.75 25.723772321428584  24.75 24.547433035714278  C 24.75 21.79110863095238  24.2900390625 19.6171875  23.3701171875 18.02566964285714  C 22.4501953125 16.434151785714278  21.12890625 15.598028273809518  19.40625 15.51729910714286  C 17.70703125 16.981956845238102  15.73828125 17.714285714285722  13.5 17.714285714285722  C 11.26171875 17.714285714285722  9.29296875 16.981956845238102  7.59375 15.51729910714286  C 5.87109375 15.598028273809518  4.5498046875 16.434151785714278  3.6298828124999996 18.02566964285714  C 2.7099609375 19.6171875  2.25 21.79110863095238  2.25 24.547433035714278  C 2.25 25.723772321428584  2.6162109375 26.72423735119048  3.3486328125 27.548828125  C 4.0810546875 28.37341889880952  4.962890625 28.785714285714278  5.994140625 28.785714285714278  Z " fill-rule="nonzero" fill="#000000" stroke="none" transform="matrix(1 0 0 1 110 199 )" />
  </g>
</svg>